<?xml version="1.0" encoding="UTF-8"?>
<svg xmlns="http://www.w3.org/2000/svg" version="1.1" viewBox="0 0 20 18">
  <defs>
    <style>
      .cls-1 {
        fill: #fff;
        stroke: #000;
        stroke-miterlimit: 10;
      }
    </style>
  </defs>
  <!-- Generator: Adobe Illustrator 28.6.0, SVG Export Plug-In . SVG Version: 1.2.0 Build 709)  -->
  <g>
    <g id="_Слой_1" data-name="Слой_1">
      <path class="cls-1" d="M16.1,3.7v.2h-.6c-1.2,0-2.1.1-2.5.2-.5.1-.7.3-.7.7v10.7l-3.4,1.5V4.8c0-.3-.2-.5-.7-.7-.5-.1-1.3-.2-2.6-.3h-.6v-.2h.7s3.9,0,3.9,0h5.8c0,0,.7,0,.7,0ZM13.8,2.1c-1.4.2-2.4.5-3,.9h-.4c-.6-.4-1.6-.8-3-.9h0c1.4-.3,2.4-.6,3-1.1h.4c.6.4,1.6.8,3,.9h0Z"/>
    </g>
  </g>
</svg>